<?xml version="1.0" encoding="utf-8"?>
<svg xmlns="http://www.w3.org/2000/svg" xmlns:xlink="http://www.w3.org/1999/xlink" width="1000" height="800" viewBox="0 0 4000 3200">
<defs>
  <clipPath id="clip910">
    <rect x="0" y="0" width="4000" height="3200"/>
  </clipPath>
</defs>
<path clip-path="url(#clip910)" d="M0 3200 L4000 3200 L4000 0 L0 0  Z" fill="#ffffff" fill-rule="evenodd" fill-opacity="1"/>
<defs>
  <clipPath id="clip911">
    <rect x="800" y="0" width="2801" height="2801"/>
  </clipPath>
</defs>
<path clip-path="url(#clip910)" d="M186.857 3063.54 L3952.76 3063.54 L3952.76 47.2441 L186.857 47.2441  Z" fill="#ffffff" fill-rule="evenodd" fill-opacity="1"/>
<defs>
  <clipPath id="clip912">
    <rect x="186" y="47" width="3767" height="3017"/>
  </clipPath>
</defs>
<polyline clip-path="url(#clip912)" style="stroke:#000000; stroke-linecap:round; stroke-linejoin:round; stroke-width:2; stroke-opacity:0.1; fill:none" points="762.94,3063.54 762.94,47.2441 "/>
<polyline clip-path="url(#clip912)" style="stroke:#000000; stroke-linecap:round; stroke-linejoin:round; stroke-width:2; stroke-opacity:0.1; fill:none" points="1667.56,3063.54 1667.56,47.2441 "/>
<polyline clip-path="url(#clip912)" style="stroke:#000000; stroke-linecap:round; stroke-linejoin:round; stroke-width:2; stroke-opacity:0.1; fill:none" points="2572.19,3063.54 2572.19,47.2441 "/>
<polyline clip-path="url(#clip912)" style="stroke:#000000; stroke-linecap:round; stroke-linejoin:round; stroke-width:2; stroke-opacity:0.1; fill:none" points="3476.82,3063.54 3476.82,47.2441 "/>
<polyline clip-path="url(#clip910)" style="stroke:#000000; stroke-linecap:round; stroke-linejoin:round; stroke-width:4; stroke-opacity:1; fill:none" points="186.857,3063.54 3952.76,3063.54 "/>
<polyline clip-path="url(#clip910)" style="stroke:#000000; stroke-linecap:round; stroke-linejoin:round; stroke-width:4; stroke-opacity:1; fill:none" points="186.857,47.2441 3952.76,47.2441 "/>
<polyline clip-path="url(#clip910)" style="stroke:#000000; stroke-linecap:round; stroke-linejoin:round; stroke-width:4; stroke-opacity:1; fill:none" points="762.94,3063.54 762.94,3044.64 "/>
<polyline clip-path="url(#clip910)" style="stroke:#000000; stroke-linecap:round; stroke-linejoin:round; stroke-width:4; stroke-opacity:1; fill:none" points="1667.56,3063.54 1667.56,3044.64 "/>
<polyline clip-path="url(#clip910)" style="stroke:#000000; stroke-linecap:round; stroke-linejoin:round; stroke-width:4; stroke-opacity:1; fill:none" points="2572.19,3063.54 2572.19,3044.64 "/>
<polyline clip-path="url(#clip910)" style="stroke:#000000; stroke-linecap:round; stroke-linejoin:round; stroke-width:4; stroke-opacity:1; fill:none" points="3476.82,3063.54 3476.82,3044.64 "/>
<path clip-path="url(#clip910)" d="M722.546 3134.8 L730.185 3134.8 L730.185 3108.44 L721.875 3110.1 L721.875 3105.84 L730.139 3104.18 L734.815 3104.18 L734.815 3134.8 L742.454 3134.8 L742.454 3138.74 L722.546 3138.74 L722.546 3134.8 Z" fill="#000000" fill-rule="nonzero" fill-opacity="1" /><path clip-path="url(#clip910)" d="M752.037 3138.02 L752.037 3133.76 Q753.796 3134.59 755.602 3135.03 Q757.407 3135.47 759.143 3135.47 Q763.773 3135.47 766.204 3132.37 Q768.657 3129.25 769.005 3122.9 Q767.662 3124.89 765.602 3125.96 Q763.542 3127.02 761.042 3127.02 Q755.856 3127.02 752.824 3123.9 Q749.815 3120.75 749.815 3115.31 Q749.815 3109.99 752.963 3106.77 Q756.111 3103.55 761.343 3103.55 Q767.338 3103.55 770.486 3108.16 Q773.657 3112.74 773.657 3121.49 Q773.657 3129.66 769.768 3134.55 Q765.903 3139.41 759.352 3139.41 Q757.593 3139.41 755.787 3139.06 Q753.981 3138.71 752.037 3138.02 M761.343 3123.37 Q764.491 3123.37 766.319 3121.21 Q768.171 3119.06 768.171 3115.31 Q768.171 3111.58 766.319 3109.43 Q764.491 3107.25 761.343 3107.25 Q758.194 3107.25 756.343 3109.43 Q754.514 3111.58 754.514 3115.31 Q754.514 3119.06 756.343 3121.21 Q758.194 3123.37 761.343 3123.37 Z" fill="#000000" fill-rule="nonzero" fill-opacity="1" /><path clip-path="url(#clip910)" d="M792.06 3107.25 Q788.449 3107.25 786.62 3110.82 Q784.815 3114.36 784.815 3121.49 Q784.815 3128.6 786.62 3132.16 Q788.449 3135.7 792.06 3135.7 Q795.694 3135.7 797.5 3132.16 Q799.328 3128.6 799.328 3121.49 Q799.328 3114.36 797.5 3110.82 Q795.694 3107.25 792.06 3107.25 M792.06 3103.55 Q797.87 3103.55 800.926 3108.16 Q804.004 3112.74 804.004 3121.49 Q804.004 3130.22 800.926 3134.82 Q797.87 3139.41 792.06 3139.41 Q786.25 3139.41 783.171 3134.82 Q780.116 3130.22 780.116 3121.49 Q780.116 3112.74 783.171 3108.16 Q786.25 3103.55 792.06 3103.55 Z" fill="#000000" fill-rule="nonzero" fill-opacity="1" /><path clip-path="url(#clip910)" d="M1631.26 3134.8 L1647.58 3134.8 L1647.58 3138.74 L1625.63 3138.74 L1625.63 3134.8 Q1628.29 3132.05 1632.88 3127.42 Q1637.48 3122.76 1638.66 3121.42 Q1640.91 3118.9 1641.79 3117.16 Q1642.69 3115.4 1642.69 3113.71 Q1642.69 3110.96 1640.75 3109.22 Q1638.83 3107.49 1635.72 3107.49 Q1633.53 3107.49 1631.07 3108.25 Q1628.64 3109.01 1625.86 3110.56 L1625.86 3105.84 Q1628.69 3104.71 1631.14 3104.13 Q1633.6 3103.55 1635.63 3103.55 Q1641 3103.55 1644.2 3106.24 Q1647.39 3108.92 1647.39 3113.41 Q1647.39 3115.54 1646.58 3117.46 Q1645.79 3119.36 1643.69 3121.95 Q1643.11 3122.62 1640.01 3125.84 Q1636.91 3129.04 1631.26 3134.8 Z" fill="#000000" fill-rule="nonzero" fill-opacity="1" /><path clip-path="url(#clip910)" d="M1667.39 3107.25 Q1663.78 3107.25 1661.95 3110.82 Q1660.15 3114.36 1660.15 3121.49 Q1660.15 3128.6 1661.95 3132.16 Q1663.78 3135.7 1667.39 3135.7 Q1671.03 3135.7 1672.83 3132.16 Q1674.66 3128.6 1674.66 3121.49 Q1674.66 3114.36 1672.83 3110.82 Q1671.03 3107.25 1667.39 3107.25 M1667.39 3103.55 Q1673.2 3103.55 1676.26 3108.16 Q1679.34 3112.74 1679.34 3121.49 Q1679.34 3130.22 1676.26 3134.82 Q1673.2 3139.41 1667.39 3139.41 Q1661.58 3139.41 1658.5 3134.82 Q1655.45 3130.22 1655.45 3121.49 Q1655.45 3112.74 1658.5 3108.16 Q1661.58 3103.55 1667.39 3103.55 Z" fill="#000000" fill-rule="nonzero" fill-opacity="1" /><path clip-path="url(#clip910)" d="M1697.55 3107.25 Q1693.94 3107.25 1692.11 3110.82 Q1690.31 3114.36 1690.31 3121.49 Q1690.31 3128.6 1692.11 3132.16 Q1693.94 3135.7 1697.55 3135.7 Q1701.19 3135.7 1702.99 3132.16 Q1704.82 3128.6 1704.82 3121.49 Q1704.82 3114.36 1702.99 3110.82 Q1701.19 3107.25 1697.55 3107.25 M1697.55 3103.55 Q1703.36 3103.55 1706.42 3108.16 Q1709.5 3112.74 1709.5 3121.49 Q1709.5 3130.22 1706.42 3134.82 Q1703.36 3139.41 1697.55 3139.41 Q1691.74 3139.41 1688.66 3134.82 Q1685.61 3130.22 1685.61 3121.49 Q1685.61 3112.74 1688.66 3108.16 Q1691.74 3103.55 1697.55 3103.55 Z" fill="#000000" fill-rule="nonzero" fill-opacity="1" /><path clip-path="url(#clip910)" d="M2535.88 3134.8 L2552.2 3134.8 L2552.2 3138.74 L2530.26 3138.74 L2530.26 3134.8 Q2532.92 3132.05 2537.5 3127.42 Q2542.11 3122.76 2543.29 3121.42 Q2545.54 3118.9 2546.41 3117.16 Q2547.32 3115.4 2547.32 3113.71 Q2547.32 3110.96 2545.37 3109.22 Q2543.45 3107.49 2540.35 3107.49 Q2538.15 3107.49 2535.7 3108.25 Q2533.27 3109.01 2530.49 3110.56 L2530.49 3105.84 Q2533.31 3104.71 2535.77 3104.13 Q2538.22 3103.55 2540.26 3103.55 Q2545.63 3103.55 2548.82 3106.24 Q2552.02 3108.92 2552.02 3113.41 Q2552.02 3115.54 2551.21 3117.46 Q2550.42 3119.36 2548.31 3121.95 Q2547.73 3122.62 2544.63 3125.84 Q2541.53 3129.04 2535.88 3134.8 Z" fill="#000000" fill-rule="nonzero" fill-opacity="1" /><path clip-path="url(#clip910)" d="M2562.83 3134.8 L2570.47 3134.8 L2570.47 3108.44 L2562.16 3110.1 L2562.16 3105.84 L2570.42 3104.18 L2575.1 3104.18 L2575.1 3134.8 L2582.73 3134.8 L2582.73 3138.74 L2562.83 3138.74 L2562.83 3134.8 Z" fill="#000000" fill-rule="nonzero" fill-opacity="1" /><path clip-path="url(#clip910)" d="M2602.18 3107.25 Q2598.57 3107.25 2596.74 3110.82 Q2594.93 3114.36 2594.93 3121.49 Q2594.93 3128.6 2596.74 3132.16 Q2598.57 3135.7 2602.18 3135.7 Q2605.81 3135.7 2607.62 3132.16 Q2609.45 3128.6 2609.45 3121.49 Q2609.45 3114.36 2607.62 3110.82 Q2605.81 3107.25 2602.18 3107.25 M2602.18 3103.55 Q2607.99 3103.55 2611.04 3108.16 Q2614.12 3112.74 2614.12 3121.49 Q2614.12 3130.22 2611.04 3134.82 Q2607.99 3139.41 2602.18 3139.41 Q2596.37 3139.41 2593.29 3134.82 Q2590.23 3130.22 2590.23 3121.49 Q2590.23 3112.74 2593.29 3108.16 Q2596.37 3103.55 2602.18 3103.55 Z" fill="#000000" fill-rule="nonzero" fill-opacity="1" /><path clip-path="url(#clip910)" d="M3440.51 3134.8 L3456.83 3134.8 L3456.83 3138.74 L3434.88 3138.74 L3434.88 3134.8 Q3437.54 3132.05 3442.13 3127.42 Q3446.73 3122.76 3447.92 3121.42 Q3450.16 3118.9 3451.04 3117.16 Q3451.94 3115.4 3451.94 3113.71 Q3451.94 3110.96 3450 3109.22 Q3448.08 3107.49 3444.98 3107.49 Q3442.78 3107.49 3440.32 3108.25 Q3437.89 3109.01 3435.11 3110.56 L3435.11 3105.84 Q3437.94 3104.71 3440.39 3104.13 Q3442.85 3103.55 3444.88 3103.55 Q3450.25 3103.55 3453.45 3106.24 Q3456.64 3108.92 3456.64 3113.41 Q3456.64 3115.54 3455.83 3117.46 Q3455.04 3119.36 3452.94 3121.95 Q3452.36 3122.62 3449.26 3125.84 Q3446.16 3129.04 3440.51 3134.8 Z" fill="#000000" fill-rule="nonzero" fill-opacity="1" /><path clip-path="url(#clip910)" d="M3470.67 3134.8 L3486.99 3134.8 L3486.99 3138.74 L3465.04 3138.74 L3465.04 3134.8 Q3467.71 3132.05 3472.29 3127.42 Q3476.9 3122.76 3478.08 3121.42 Q3480.32 3118.9 3481.2 3117.16 Q3482.1 3115.4 3482.1 3113.71 Q3482.1 3110.96 3480.16 3109.22 Q3478.24 3107.49 3475.14 3107.49 Q3472.94 3107.49 3470.48 3108.25 Q3468.05 3109.01 3465.28 3110.56 L3465.28 3105.84 Q3468.1 3104.71 3470.55 3104.13 Q3473.01 3103.55 3475.04 3103.55 Q3480.41 3103.55 3483.61 3106.24 Q3486.8 3108.92 3486.8 3113.41 Q3486.8 3115.54 3485.99 3117.46 Q3485.21 3119.36 3483.1 3121.95 Q3482.52 3122.62 3479.42 3125.84 Q3476.32 3129.04 3470.67 3134.8 Z" fill="#000000" fill-rule="nonzero" fill-opacity="1" /><path clip-path="url(#clip910)" d="M3506.8 3107.25 Q3503.19 3107.25 3501.36 3110.82 Q3499.56 3114.36 3499.56 3121.49 Q3499.56 3128.6 3501.36 3132.16 Q3503.19 3135.7 3506.8 3135.7 Q3510.44 3135.7 3512.24 3132.16 Q3514.07 3128.6 3514.07 3121.49 Q3514.07 3114.36 3512.24 3110.82 Q3510.44 3107.25 3506.8 3107.25 M3506.8 3103.55 Q3512.61 3103.55 3515.67 3108.16 Q3518.75 3112.74 3518.75 3121.49 Q3518.75 3130.22 3515.67 3134.82 Q3512.61 3139.41 3506.8 3139.41 Q3500.99 3139.41 3497.91 3134.82 Q3494.86 3130.22 3494.86 3121.49 Q3494.86 3112.74 3497.91 3108.16 Q3500.99 3103.55 3506.8 3103.55 Z" fill="#000000" fill-rule="nonzero" fill-opacity="1" /><polyline clip-path="url(#clip912)" style="stroke:#000000; stroke-linecap:round; stroke-linejoin:round; stroke-width:2; stroke-opacity:0.1; fill:none" points="186.857,2918.54 3952.76,2918.54 "/>
<polyline clip-path="url(#clip912)" style="stroke:#000000; stroke-linecap:round; stroke-linejoin:round; stroke-width:2; stroke-opacity:0.1; fill:none" points="186.857,2502.72 3952.76,2502.72 "/>
<polyline clip-path="url(#clip912)" style="stroke:#000000; stroke-linecap:round; stroke-linejoin:round; stroke-width:2; stroke-opacity:0.1; fill:none" points="186.857,2086.91 3952.76,2086.91 "/>
<polyline clip-path="url(#clip912)" style="stroke:#000000; stroke-linecap:round; stroke-linejoin:round; stroke-width:2; stroke-opacity:0.1; fill:none" points="186.857,1671.09 3952.76,1671.09 "/>
<polyline clip-path="url(#clip912)" style="stroke:#000000; stroke-linecap:round; stroke-linejoin:round; stroke-width:2; stroke-opacity:0.1; fill:none" points="186.857,1255.27 3952.76,1255.27 "/>
<polyline clip-path="url(#clip912)" style="stroke:#000000; stroke-linecap:round; stroke-linejoin:round; stroke-width:2; stroke-opacity:0.1; fill:none" points="186.857,839.458 3952.76,839.458 "/>
<polyline clip-path="url(#clip912)" style="stroke:#000000; stroke-linecap:round; stroke-linejoin:round; stroke-width:2; stroke-opacity:0.1; fill:none" points="186.857,423.641 3952.76,423.641 "/>
<polyline clip-path="url(#clip910)" style="stroke:#000000; stroke-linecap:round; stroke-linejoin:round; stroke-width:4; stroke-opacity:1; fill:none" points="186.857,3063.54 186.857,47.2441 "/>
<polyline clip-path="url(#clip910)" style="stroke:#000000; stroke-linecap:round; stroke-linejoin:round; stroke-width:4; stroke-opacity:1; fill:none" points="3952.76,3063.54 3952.76,47.2441 "/>
<polyline clip-path="url(#clip910)" style="stroke:#000000; stroke-linecap:round; stroke-linejoin:round; stroke-width:4; stroke-opacity:1; fill:none" points="186.857,2918.54 205.755,2918.54 "/>
<polyline clip-path="url(#clip910)" style="stroke:#000000; stroke-linecap:round; stroke-linejoin:round; stroke-width:4; stroke-opacity:1; fill:none" points="186.857,2502.72 205.755,2502.72 "/>
<polyline clip-path="url(#clip910)" style="stroke:#000000; stroke-linecap:round; stroke-linejoin:round; stroke-width:4; stroke-opacity:1; fill:none" points="186.857,2086.91 205.755,2086.91 "/>
<polyline clip-path="url(#clip910)" style="stroke:#000000; stroke-linecap:round; stroke-linejoin:round; stroke-width:4; stroke-opacity:1; fill:none" points="186.857,1671.09 205.755,1671.09 "/>
<polyline clip-path="url(#clip910)" style="stroke:#000000; stroke-linecap:round; stroke-linejoin:round; stroke-width:4; stroke-opacity:1; fill:none" points="186.857,1255.27 205.755,1255.27 "/>
<polyline clip-path="url(#clip910)" style="stroke:#000000; stroke-linecap:round; stroke-linejoin:round; stroke-width:4; stroke-opacity:1; fill:none" points="186.857,839.458 205.755,839.458 "/>
<polyline clip-path="url(#clip910)" style="stroke:#000000; stroke-linecap:round; stroke-linejoin:round; stroke-width:4; stroke-opacity:1; fill:none" points="186.857,423.641 205.755,423.641 "/>
<path clip-path="url(#clip910)" d="M48.6171 2931.89 L64.9365 2931.89 L64.9365 2935.82 L42.9921 2935.82 L42.9921 2931.89 Q45.6541 2929.13 50.2375 2924.5 Q54.8439 2919.85 56.0245 2918.51 Q58.2698 2915.98 59.1494 2914.25 Q60.0522 2912.49 60.0522 2910.8 Q60.0522 2908.04 58.1078 2906.31 Q56.1865 2904.57 53.0847 2904.57 Q50.8856 2904.57 48.4319 2905.34 Q46.0014 2906.1 43.2236 2907.65 L43.2236 2902.93 Q46.0477 2901.79 48.5014 2901.21 Q50.955 2900.64 52.9921 2900.64 Q58.3624 2900.64 61.5568 2903.32 Q64.7513 2906.01 64.7513 2910.5 Q64.7513 2912.63 63.9411 2914.55 Q63.1541 2916.45 61.0476 2919.04 Q60.4689 2919.71 57.367 2922.93 Q54.2652 2926.12 48.6171 2931.89 Z" fill="#000000" fill-rule="nonzero" fill-opacity="1" /><path clip-path="url(#clip910)" d="M75.5614 2931.89 L83.2002 2931.89 L83.2002 2905.52 L74.8901 2907.19 L74.8901 2902.93 L83.1539 2901.26 L87.8298 2901.26 L87.8298 2931.89 L95.4687 2931.89 L95.4687 2935.82 L75.5614 2935.82 L75.5614 2931.89 Z" fill="#000000" fill-rule="nonzero" fill-opacity="1" /><path clip-path="url(#clip910)" d="M114.913 2904.34 Q111.302 2904.34 109.473 2907.9 Q107.668 2911.45 107.668 2918.58 Q107.668 2925.68 109.473 2929.25 Q111.302 2932.79 114.913 2932.79 Q118.547 2932.79 120.353 2929.25 Q122.182 2925.68 122.182 2918.58 Q122.182 2911.45 120.353 2907.9 Q118.547 2904.34 114.913 2904.34 M114.913 2900.64 Q120.723 2900.64 123.779 2905.24 Q126.857 2909.83 126.857 2918.58 Q126.857 2927.3 123.779 2931.91 Q120.723 2936.49 114.913 2936.49 Q109.103 2936.49 106.024 2931.91 Q102.969 2927.3 102.969 2918.58 Q102.969 2909.83 106.024 2905.24 Q109.103 2900.64 114.913 2900.64 Z" fill="#000000" fill-rule="nonzero" fill-opacity="1" /><path clip-path="url(#clip910)" d="M48.6171 2516.07 L64.9365 2516.07 L64.9365 2520 L42.9921 2520 L42.9921 2516.07 Q45.6541 2513.31 50.2375 2508.68 Q54.8439 2504.03 56.0245 2502.69 Q58.2698 2500.17 59.1494 2498.43 Q60.0522 2496.67 60.0522 2494.98 Q60.0522 2492.23 58.1078 2490.49 Q56.1865 2488.75 53.0847 2488.75 Q50.8856 2488.75 48.4319 2489.52 Q46.0014 2490.28 43.2236 2491.83 L43.2236 2487.11 Q46.0477 2485.98 48.5014 2485.4 Q50.955 2484.82 52.9921 2484.82 Q58.3624 2484.82 61.5568 2487.5 Q64.7513 2490.19 64.7513 2494.68 Q64.7513 2496.81 63.9411 2498.73 Q63.1541 2500.63 61.0476 2503.22 Q60.4689 2503.89 57.367 2507.11 Q54.2652 2510.31 48.6171 2516.07 Z" fill="#000000" fill-rule="nonzero" fill-opacity="1" /><path clip-path="url(#clip910)" d="M78.779 2516.07 L95.0983 2516.07 L95.0983 2520 L73.154 2520 L73.154 2516.07 Q75.816 2513.31 80.3993 2508.68 Q85.0058 2504.03 86.1863 2502.69 Q88.4317 2500.17 89.3113 2498.43 Q90.2141 2496.67 90.2141 2494.98 Q90.2141 2492.23 88.2697 2490.49 Q86.3484 2488.75 83.2465 2488.75 Q81.0475 2488.75 78.5938 2489.52 Q76.1632 2490.28 73.3855 2491.83 L73.3855 2487.11 Q76.2095 2485.98 78.6632 2485.4 Q81.1169 2484.82 83.1539 2484.82 Q88.5243 2484.82 91.7187 2487.5 Q94.9131 2490.19 94.9131 2494.68 Q94.9131 2496.81 94.103 2498.73 Q93.3159 2500.63 91.2095 2503.22 Q90.6308 2503.89 87.5289 2507.11 Q84.4271 2510.31 78.779 2516.07 Z" fill="#000000" fill-rule="nonzero" fill-opacity="1" /><path clip-path="url(#clip910)" d="M114.913 2488.52 Q111.302 2488.52 109.473 2492.09 Q107.668 2495.63 107.668 2502.76 Q107.668 2509.87 109.473 2513.43 Q111.302 2516.97 114.913 2516.97 Q118.547 2516.97 120.353 2513.43 Q122.182 2509.87 122.182 2502.76 Q122.182 2495.63 120.353 2492.09 Q118.547 2488.52 114.913 2488.52 M114.913 2484.82 Q120.723 2484.82 123.779 2489.43 Q126.857 2494.01 126.857 2502.76 Q126.857 2511.49 123.779 2516.09 Q120.723 2520.68 114.913 2520.68 Q109.103 2520.68 106.024 2516.09 Q102.969 2511.49 102.969 2502.76 Q102.969 2494.01 106.024 2489.43 Q109.103 2484.82 114.913 2484.82 Z" fill="#000000" fill-rule="nonzero" fill-opacity="1" /><path clip-path="url(#clip910)" d="M48.6171 2100.25 L64.9365 2100.25 L64.9365 2104.19 L42.9921 2104.19 L42.9921 2100.25 Q45.6541 2097.5 50.2375 2092.87 Q54.8439 2088.22 56.0245 2086.87 Q58.2698 2084.35 59.1494 2082.61 Q60.0522 2080.85 60.0522 2079.16 Q60.0522 2076.41 58.1078 2074.67 Q56.1865 2072.94 53.0847 2072.94 Q50.8856 2072.94 48.4319 2073.7 Q46.0014 2074.47 43.2236 2076.02 L43.2236 2071.29 Q46.0477 2070.16 48.5014 2069.58 Q50.955 2069 52.9921 2069 Q58.3624 2069 61.5568 2071.69 Q64.7513 2074.37 64.7513 2078.86 Q64.7513 2080.99 63.9411 2082.91 Q63.1541 2084.81 61.0476 2087.41 Q60.4689 2088.08 57.367 2091.29 Q54.2652 2094.49 48.6171 2100.25 Z" fill="#000000" fill-rule="nonzero" fill-opacity="1" /><path clip-path="url(#clip910)" d="M88.9178 2085.55 Q92.2743 2086.27 94.1493 2088.54 Q96.0474 2090.81 96.0474 2094.14 Q96.0474 2099.26 92.5289 2102.06 Q89.0104 2104.86 82.529 2104.86 Q80.353 2104.86 78.0382 2104.42 Q75.7466 2104 73.2929 2103.15 L73.2929 2098.63 Q75.2373 2099.77 77.5521 2100.35 Q79.8669 2100.92 82.3901 2100.92 Q86.7882 2100.92 89.0798 2099.19 Q91.3946 2097.45 91.3946 2094.14 Q91.3946 2091.09 89.2419 2089.37 Q87.1123 2087.64 83.2928 2087.64 L79.2651 2087.64 L79.2651 2083.79 L83.478 2083.79 Q86.9271 2083.79 88.7558 2082.43 Q90.5845 2081.04 90.5845 2078.45 Q90.5845 2075.79 88.6863 2074.37 Q86.8113 2072.94 83.2928 2072.94 Q81.3715 2072.94 79.1725 2073.35 Q76.9734 2073.77 74.3346 2074.65 L74.3346 2070.48 Q76.9966 2069.74 79.3114 2069.37 Q81.6493 2069 83.7095 2069 Q89.0335 2069 92.1354 2071.43 Q95.2372 2073.84 95.2372 2077.96 Q95.2372 2080.83 93.5937 2082.82 Q91.9502 2084.79 88.9178 2085.55 Z" fill="#000000" fill-rule="nonzero" fill-opacity="1" /><path clip-path="url(#clip910)" d="M114.913 2072.71 Q111.302 2072.71 109.473 2076.27 Q107.668 2079.81 107.668 2086.94 Q107.668 2094.05 109.473 2097.61 Q111.302 2101.16 114.913 2101.16 Q118.547 2101.16 120.353 2097.61 Q122.182 2094.05 122.182 2086.94 Q122.182 2079.81 120.353 2076.27 Q118.547 2072.71 114.913 2072.71 M114.913 2069 Q120.723 2069 123.779 2073.61 Q126.857 2078.19 126.857 2086.94 Q126.857 2095.67 123.779 2100.28 Q120.723 2104.86 114.913 2104.86 Q109.103 2104.86 106.024 2100.28 Q102.969 2095.67 102.969 2086.94 Q102.969 2078.19 106.024 2073.61 Q109.103 2069 114.913 2069 Z" fill="#000000" fill-rule="nonzero" fill-opacity="1" /><path clip-path="url(#clip910)" d="M48.6171 1684.44 L64.9365 1684.44 L64.9365 1688.37 L42.9921 1688.37 L42.9921 1684.44 Q45.6541 1681.68 50.2375 1677.05 Q54.8439 1672.4 56.0245 1671.06 Q58.2698 1668.53 59.1494 1666.8 Q60.0522 1665.04 60.0522 1663.35 Q60.0522 1660.59 58.1078 1658.86 Q56.1865 1657.12 53.0847 1657.12 Q50.8856 1657.12 48.4319 1657.89 Q46.0014 1658.65 43.2236 1660.2 L43.2236 1655.48 Q46.0477 1654.34 48.5014 1653.76 Q50.955 1653.19 52.9921 1653.19 Q58.3624 1653.19 61.5568 1655.87 Q64.7513 1658.56 64.7513 1663.05 Q64.7513 1665.18 63.9411 1667.1 Q63.1541 1669 61.0476 1671.59 Q60.4689 1672.26 57.367 1675.48 Q54.2652 1678.67 48.6171 1684.44 Z" fill="#000000" fill-rule="nonzero" fill-opacity="1" /><path clip-path="url(#clip910)" d="M87.5984 1657.89 L75.7929 1676.33 L87.5984 1676.33 L87.5984 1657.89 M86.3715 1653.81 L92.2511 1653.81 L92.2511 1676.33 L97.1817 1676.33 L97.1817 1680.22 L92.2511 1680.22 L92.2511 1688.37 L87.5984 1688.37 L87.5984 1680.22 L71.9966 1680.22 L71.9966 1675.71 L86.3715 1653.81 Z" fill="#000000" fill-rule="nonzero" fill-opacity="1" /><path clip-path="url(#clip910)" d="M114.913 1656.89 Q111.302 1656.89 109.473 1660.45 Q107.668 1664 107.668 1671.13 Q107.668 1678.23 109.473 1681.8 Q111.302 1685.34 114.913 1685.34 Q118.547 1685.34 120.353 1681.8 Q122.182 1678.23 122.182 1671.13 Q122.182 1664 120.353 1660.45 Q118.547 1656.89 114.913 1656.89 M114.913 1653.19 Q120.723 1653.19 123.779 1657.79 Q126.857 1662.38 126.857 1671.13 Q126.857 1679.85 123.779 1684.46 Q120.723 1689.04 114.913 1689.04 Q109.103 1689.04 106.024 1684.46 Q102.969 1679.85 102.969 1671.13 Q102.969 1662.38 106.024 1657.79 Q109.103 1653.19 114.913 1653.19 Z" fill="#000000" fill-rule="nonzero" fill-opacity="1" /><path clip-path="url(#clip910)" d="M48.6171 1268.62 L64.9365 1268.62 L64.9365 1272.55 L42.9921 1272.55 L42.9921 1268.62 Q45.6541 1265.86 50.2375 1261.23 Q54.8439 1256.58 56.0245 1255.24 Q58.2698 1252.72 59.1494 1250.98 Q60.0522 1249.22 60.0522 1247.53 Q60.0522 1244.78 58.1078 1243.04 Q56.1865 1241.3 53.0847 1241.3 Q50.8856 1241.3 48.4319 1242.07 Q46.0014 1242.83 43.2236 1244.38 L43.2236 1239.66 Q46.0477 1238.53 48.5014 1237.95 Q50.955 1237.37 52.9921 1237.37 Q58.3624 1237.37 61.5568 1240.05 Q64.7513 1242.74 64.7513 1247.23 Q64.7513 1249.36 63.9411 1251.28 Q63.1541 1253.18 61.0476 1255.77 Q60.4689 1256.44 57.367 1259.66 Q54.2652 1262.86 48.6171 1268.62 Z" fill="#000000" fill-rule="nonzero" fill-opacity="1" /><path clip-path="url(#clip910)" d="M74.7975 1237.99 L93.1539 1237.99 L93.1539 1241.93 L79.0799 1241.93 L79.0799 1250.4 Q80.0984 1250.05 81.1169 1249.89 Q82.1354 1249.71 83.1539 1249.71 Q88.941 1249.71 92.3206 1252.88 Q95.7002 1256.05 95.7002 1261.47 Q95.7002 1267.05 92.228 1270.15 Q88.7558 1273.23 82.4364 1273.23 Q80.2604 1273.23 77.9919 1272.86 Q75.7466 1272.48 73.3392 1271.74 L73.3392 1267.05 Q75.4225 1268.18 77.6447 1268.73 Q79.8669 1269.29 82.3438 1269.29 Q86.3484 1269.29 88.6863 1267.18 Q91.0243 1265.08 91.0243 1261.47 Q91.0243 1257.86 88.6863 1255.75 Q86.3484 1253.64 82.3438 1253.64 Q80.4688 1253.64 78.5938 1254.06 Q76.7419 1254.48 74.7975 1255.36 L74.7975 1237.99 Z" fill="#000000" fill-rule="nonzero" fill-opacity="1" /><path clip-path="url(#clip910)" d="M114.913 1241.07 Q111.302 1241.07 109.473 1244.64 Q107.668 1248.18 107.668 1255.31 Q107.668 1262.42 109.473 1265.98 Q111.302 1269.52 114.913 1269.52 Q118.547 1269.52 120.353 1265.98 Q122.182 1262.42 122.182 1255.31 Q122.182 1248.18 120.353 1244.64 Q118.547 1241.07 114.913 1241.07 M114.913 1237.37 Q120.723 1237.37 123.779 1241.98 Q126.857 1246.56 126.857 1255.31 Q126.857 1264.04 123.779 1268.64 Q120.723 1273.23 114.913 1273.23 Q109.103 1273.23 106.024 1268.64 Q102.969 1264.04 102.969 1255.31 Q102.969 1246.56 106.024 1241.98 Q109.103 1237.37 114.913 1237.37 Z" fill="#000000" fill-rule="nonzero" fill-opacity="1" /><path clip-path="url(#clip910)" d="M48.6171 852.802 L64.9365 852.802 L64.9365 856.738 L42.9921 856.738 L42.9921 852.802 Q45.6541 850.048 50.2375 845.418 Q54.8439 840.766 56.0245 839.423 Q58.2698 836.9 59.1494 835.164 Q60.0522 833.404 60.0522 831.715 Q60.0522 828.96 58.1078 827.224 Q56.1865 825.488 53.0847 825.488 Q50.8856 825.488 48.4319 826.252 Q46.0014 827.016 43.2236 828.567 L43.2236 823.844 Q46.0477 822.71 48.5014 822.131 Q50.955 821.553 52.9921 821.553 Q58.3624 821.553 61.5568 824.238 Q64.7513 826.923 64.7513 831.414 Q64.7513 833.543 63.9411 835.465 Q63.1541 837.363 61.0476 839.955 Q60.4689 840.627 57.367 843.844 Q54.2652 847.039 48.6171 852.802 Z" fill="#000000" fill-rule="nonzero" fill-opacity="1" /><path clip-path="url(#clip910)" d="M85.3299 837.594 Q82.1817 837.594 80.3299 839.747 Q78.5012 841.9 78.5012 845.65 Q78.5012 849.377 80.3299 851.553 Q82.1817 853.705 85.3299 853.705 Q88.478 853.705 90.3067 851.553 Q92.1585 849.377 92.1585 845.65 Q92.1585 841.9 90.3067 839.747 Q88.478 837.594 85.3299 837.594 M94.6122 822.942 L94.6122 827.201 Q92.853 826.367 91.0474 825.928 Q89.265 825.488 87.5058 825.488 Q82.8762 825.488 80.4225 828.613 Q77.9919 831.738 77.6447 838.057 Q79.0105 836.043 81.0706 834.979 Q83.1308 833.891 85.6076 833.891 Q90.8159 833.891 93.8252 837.062 Q96.8576 840.21 96.8576 845.65 Q96.8576 850.974 93.7094 854.191 Q90.5613 857.409 85.3299 857.409 Q79.3345 857.409 76.1632 852.826 Q72.992 848.219 72.992 839.492 Q72.992 831.298 76.8808 826.437 Q80.7697 821.553 87.3206 821.553 Q89.0798 821.553 90.8622 821.9 Q92.6678 822.247 94.6122 822.942 Z" fill="#000000" fill-rule="nonzero" fill-opacity="1" /><path clip-path="url(#clip910)" d="M114.913 825.256 Q111.302 825.256 109.473 828.821 Q107.668 832.363 107.668 839.492 Q107.668 846.599 109.473 850.164 Q111.302 853.705 114.913 853.705 Q118.547 853.705 120.353 850.164 Q122.182 846.599 122.182 839.492 Q122.182 832.363 120.353 828.821 Q118.547 825.256 114.913 825.256 M114.913 821.553 Q120.723 821.553 123.779 826.159 Q126.857 830.742 126.857 839.492 Q126.857 848.219 123.779 852.826 Q120.723 857.409 114.913 857.409 Q109.103 857.409 106.024 852.826 Q102.969 848.219 102.969 839.492 Q102.969 830.742 106.024 826.159 Q109.103 821.553 114.913 821.553 Z" fill="#000000" fill-rule="nonzero" fill-opacity="1" /><path clip-path="url(#clip910)" d="M48.6171 436.986 L64.9365 436.986 L64.9365 440.921 L42.9921 440.921 L42.9921 436.986 Q45.6541 434.231 50.2375 429.602 Q54.8439 424.949 56.0245 423.606 Q58.2698 421.083 59.1494 419.347 Q60.0522 417.588 60.0522 415.898 Q60.0522 413.143 58.1078 411.407 Q56.1865 409.671 53.0847 409.671 Q50.8856 409.671 48.4319 410.435 Q46.0014 411.199 43.2236 412.75 L43.2236 408.028 Q46.0477 406.893 48.5014 406.315 Q50.955 405.736 52.9921 405.736 Q58.3624 405.736 61.5568 408.421 Q64.7513 411.106 64.7513 415.597 Q64.7513 417.727 63.9411 419.648 Q63.1541 421.546 61.0476 424.139 Q60.4689 424.81 57.367 428.028 Q54.2652 431.222 48.6171 436.986 Z" fill="#000000" fill-rule="nonzero" fill-opacity="1" /><path clip-path="url(#clip910)" d="M73.5707 406.361 L95.7928 406.361 L95.7928 408.352 L83.2465 440.921 L78.3623 440.921 L90.1678 410.296 L73.5707 410.296 L73.5707 406.361 Z" fill="#000000" fill-rule="nonzero" fill-opacity="1" /><path clip-path="url(#clip910)" d="M114.913 409.44 Q111.302 409.44 109.473 413.004 Q107.668 416.546 107.668 423.676 Q107.668 430.782 109.473 434.347 Q111.302 437.889 114.913 437.889 Q118.547 437.889 120.353 434.347 Q122.182 430.782 122.182 423.676 Q122.182 416.546 120.353 413.004 Q118.547 409.44 114.913 409.44 M114.913 405.736 Q120.723 405.736 123.779 410.342 Q126.857 414.926 126.857 423.676 Q126.857 432.403 123.779 437.009 Q120.723 441.592 114.913 441.592 Q109.103 441.592 106.024 437.009 Q102.969 432.403 102.969 423.676 Q102.969 414.926 106.024 410.342 Q109.103 405.736 114.913 405.736 Z" fill="#000000" fill-rule="nonzero" fill-opacity="1" /><polyline clip-path="url(#clip912)" style="stroke:#000000; stroke-linecap:round; stroke-linejoin:round; stroke-width:8; stroke-opacity:1; fill:none" points="700.43,2184.25 566.546,2397.23 "/>
<polyline clip-path="url(#clip912)" style="stroke:#000000; stroke-linecap:round; stroke-linejoin:round; stroke-width:8; stroke-opacity:1; fill:none" points="2716.75,1083.92 2564.68,1378.73 "/>
<polyline clip-path="url(#clip912)" style="stroke:#000000; stroke-linecap:round; stroke-linejoin:round; stroke-width:8; stroke-opacity:1; fill:none" points="1240.67,2263.96 1232.26,2265.54 "/>
<polyline clip-path="url(#clip912)" style="stroke:#000000; stroke-linecap:round; stroke-linejoin:round; stroke-width:8; stroke-opacity:1; fill:none" points="3846.17,145.418 3846.08,146.665 "/>
<polyline clip-path="url(#clip912)" style="stroke:#000000; stroke-linecap:round; stroke-linejoin:round; stroke-width:8; stroke-opacity:1; fill:none" points="464.775,2618.53 469.117,2620.48 "/>
<polyline clip-path="url(#clip912)" style="stroke:#000000; stroke-linecap:round; stroke-linejoin:round; stroke-width:8; stroke-opacity:1; fill:none" points="2026.97,1715.71 2023.99,1719.58 "/>
<polyline clip-path="url(#clip912)" style="stroke:#000000; stroke-linecap:round; stroke-linejoin:round; stroke-width:8; stroke-opacity:1; fill:none" points="2034.39,1711.55 2026.97,1715.71 "/>
<polyline clip-path="url(#clip912)" style="stroke:#000000; stroke-linecap:round; stroke-linejoin:round; stroke-width:8; stroke-opacity:1; fill:none" points="3219.9,1111.32 3215.2,1114.89 "/>
<polyline clip-path="url(#clip912)" style="stroke:#000000; stroke-linecap:round; stroke-linejoin:round; stroke-width:8; stroke-opacity:1; fill:none" points="958.972,806.234 685.866,772.428 "/>
<polyline clip-path="url(#clip912)" style="stroke:#000000; stroke-linecap:round; stroke-linejoin:round; stroke-width:8; stroke-opacity:1; fill:none" points="2419.4,1615.87 2415.69,1615.87 "/>
<polyline clip-path="url(#clip912)" style="stroke:#000000; stroke-linecap:round; stroke-linejoin:round; stroke-width:8; stroke-opacity:1; fill:none" points="1624.78,933.848 1536.85,921.207 "/>
<polyline clip-path="url(#clip912)" style="stroke:#000000; stroke-linecap:round; stroke-linejoin:round; stroke-width:8; stroke-opacity:1; fill:none" points="3843.82,141.218 3845.36,142.882 "/>
<polyline clip-path="url(#clip912)" style="stroke:#000000; stroke-linecap:round; stroke-linejoin:round; stroke-width:8; stroke-opacity:1; fill:none" points="1105.52,2454.78 1106.97,2461.1 "/>
<polyline clip-path="url(#clip912)" style="stroke:#000000; stroke-linecap:round; stroke-linejoin:round; stroke-width:8; stroke-opacity:1; fill:none" points="3708.58,304.011 3638.74,414.701 "/>
<polyline clip-path="url(#clip912)" style="stroke:#000000; stroke-linecap:round; stroke-linejoin:round; stroke-width:8; stroke-opacity:1; fill:none" points="3186.97,1124.92 3180.37,1125.37 "/>
<polyline clip-path="url(#clip912)" style="stroke:#000000; stroke-linecap:round; stroke-linejoin:round; stroke-width:8; stroke-opacity:1; fill:none" points="844.64,1953.56 842.909,1956.84 "/>
<polyline clip-path="url(#clip912)" style="stroke:#000000; stroke-linecap:round; stroke-linejoin:round; stroke-width:8; stroke-opacity:1; fill:none" points="3207.51,1119.34 3195.12,1123.54 "/>
<polyline clip-path="url(#clip912)" style="stroke:#000000; stroke-linecap:round; stroke-linejoin:round; stroke-width:8; stroke-opacity:1; fill:none" points="1249.72,1339.02 1257.86,1332.37 "/>
<polyline clip-path="url(#clip912)" style="stroke:#000000; stroke-linecap:round; stroke-linejoin:round; stroke-width:8; stroke-opacity:1; fill:none" points="457.448,2605.47 456.815,2608.26 "/>
<polyline clip-path="url(#clip912)" style="stroke:#000000; stroke-linecap:round; stroke-linejoin:round; stroke-width:8; stroke-opacity:1; fill:none" points="1237.14,1316.19 1175.39,1415.2 "/>
<polyline clip-path="url(#clip912)" style="stroke:#000000; stroke-linecap:round; stroke-linejoin:round; stroke-width:8; stroke-opacity:1; fill:none" points="1219.96,2275.31 1106.97,2448.92 "/>
<polyline clip-path="url(#clip912)" style="stroke:#000000; stroke-linecap:round; stroke-linejoin:round; stroke-width:8; stroke-opacity:1; fill:none" points="3195.12,1123.54 3186.97,1124.92 "/>
<polyline clip-path="url(#clip912)" style="stroke:#000000; stroke-linecap:round; stroke-linejoin:round; stroke-width:8; stroke-opacity:1; fill:none" points="834.315,1971.23 700.43,2184.25 "/>
<polyline clip-path="url(#clip912)" style="stroke:#000000; stroke-linecap:round; stroke-linejoin:round; stroke-width:8; stroke-opacity:1; fill:none" points="2722.36,1080.38 2716.75,1083.92 "/>
<polyline clip-path="url(#clip912)" style="stroke:#000000; stroke-linecap:round; stroke-linejoin:round; stroke-width:8; stroke-opacity:1; fill:none" points="700.43,2184.25 1299.65,2261.22 "/>
<polyline clip-path="url(#clip912)" style="stroke:#000000; stroke-linecap:round; stroke-linejoin:round; stroke-width:8; stroke-opacity:1; fill:none" points="479.702,2623.19 485.582,2623.85 "/>
<polyline clip-path="url(#clip912)" style="stroke:#000000; stroke-linecap:round; stroke-linejoin:round; stroke-width:8; stroke-opacity:1; fill:none" points="2756.1,1077.14 2740.54,1076.85 "/>
<polyline clip-path="url(#clip912)" style="stroke:#000000; stroke-linecap:round; stroke-linejoin:round; stroke-width:8; stroke-opacity:1; fill:none" points="3756.07,282.222 3752.64,285.631 "/>
<polyline clip-path="url(#clip912)" style="stroke:#000000; stroke-linecap:round; stroke-linejoin:round; stroke-width:8; stroke-opacity:1; fill:none" points="322.568,2923.11 293.439,2978.17 "/>
<polyline clip-path="url(#clip912)" style="stroke:#000000; stroke-linecap:round; stroke-linejoin:round; stroke-width:8; stroke-opacity:1; fill:none" points="2415.69,1615.87 2402.93,1617.78 "/>
<polyline clip-path="url(#clip912)" style="stroke:#000000; stroke-linecap:round; stroke-linejoin:round; stroke-width:8; stroke-opacity:1; fill:none" points="1257.86,1332.37 1266.73,1326.63 "/>
<polyline clip-path="url(#clip912)" style="stroke:#000000; stroke-linecap:round; stroke-linejoin:round; stroke-width:8; stroke-opacity:1; fill:none" points="3524.13,604.272 3500.52,649.596 "/>
<polyline clip-path="url(#clip912)" style="stroke:#000000; stroke-linecap:round; stroke-linejoin:round; stroke-width:8; stroke-opacity:1; fill:none" points="3235.37,1087.24 3222.8,1108.37 "/>
<polyline clip-path="url(#clip912)" style="stroke:#000000; stroke-linecap:round; stroke-linejoin:round; stroke-width:8; stroke-opacity:1; fill:none" points="1224.21,2270.66 1219.96,2275.31 "/>
<polyline clip-path="url(#clip912)" style="stroke:#000000; stroke-linecap:round; stroke-linejoin:round; stroke-width:8; stroke-opacity:1; fill:none" points="2039.28,1737.08 2029.42,1959.13 "/>
<polyline clip-path="url(#clip912)" style="stroke:#000000; stroke-linecap:round; stroke-linejoin:round; stroke-width:8; stroke-opacity:1; fill:none" points="3180.37,1125.37 3169.97,1125.21 "/>
<polyline clip-path="url(#clip912)" style="stroke:#000000; stroke-linecap:round; stroke-linejoin:round; stroke-width:8; stroke-opacity:1; fill:none" points="2729.87,1078.26 2722.36,1080.38 "/>
<polyline clip-path="url(#clip912)" style="stroke:#000000; stroke-linecap:round; stroke-linejoin:round; stroke-width:8; stroke-opacity:1; fill:none" points="1608.4,943.245 1591.21,948.942 "/>
<polyline clip-path="url(#clip912)" style="stroke:#000000; stroke-linecap:round; stroke-linejoin:round; stroke-width:8; stroke-opacity:1; fill:none" points="1503.74,975.762 1469.27,990.649 "/>
<polyline clip-path="url(#clip912)" style="stroke:#000000; stroke-linecap:round; stroke-linejoin:round; stroke-width:8; stroke-opacity:1; fill:none" points="458.73,2602.73 414.116,2687.76 "/>
<polyline clip-path="url(#clip912)" style="stroke:#000000; stroke-linecap:round; stroke-linejoin:round; stroke-width:8; stroke-opacity:1; fill:none" points="474.093,2622.06 479.702,2623.19 "/>
<polyline clip-path="url(#clip912)" style="stroke:#000000; stroke-linecap:round; stroke-linejoin:round; stroke-width:8; stroke-opacity:1; fill:none" points="1469.27,990.649 1455.7,998.591 "/>
<polyline clip-path="url(#clip912)" style="stroke:#000000; stroke-linecap:round; stroke-linejoin:round; stroke-width:8; stroke-opacity:1; fill:none" points="3834.87,136.686 3838.85,138.058 "/>
<polyline clip-path="url(#clip912)" style="stroke:#000000; stroke-linecap:round; stroke-linejoin:round; stroke-width:8; stroke-opacity:1; fill:none" points="1432.09,1019.17 1416.26,1032.9 "/>
<polyline clip-path="url(#clip912)" style="stroke:#000000; stroke-linecap:round; stroke-linejoin:round; stroke-width:8; stroke-opacity:1; fill:none" points="1591.21,948.942 1564.26,956.884 "/>
<polyline clip-path="url(#clip912)" style="stroke:#000000; stroke-linecap:round; stroke-linejoin:round; stroke-width:8; stroke-opacity:1; fill:none" points="2023.99,1719.58 2024.71,1724.44 "/>
<polyline clip-path="url(#clip912)" style="stroke:#000000; stroke-linecap:round; stroke-linejoin:round; stroke-width:8; stroke-opacity:1; fill:none" points="2024.71,1724.44 2031.41,1731.84 "/>
<polyline clip-path="url(#clip912)" style="stroke:#000000; stroke-linecap:round; stroke-linejoin:round; stroke-width:8; stroke-opacity:1; fill:none" points="1111.94,2466.09 1120.72,2472.2 "/>
<polyline clip-path="url(#clip912)" style="stroke:#000000; stroke-linecap:round; stroke-linejoin:round; stroke-width:8; stroke-opacity:1; fill:none" points="1447.92,1004.79 1432.09,1019.17 "/>
<polyline clip-path="url(#clip912)" style="stroke:#000000; stroke-linecap:round; stroke-linejoin:round; stroke-width:8; stroke-opacity:1; fill:none" points="1299.65,2261.22 1253.88,2263.17 "/>
<polyline clip-path="url(#clip912)" style="stroke:#000000; stroke-linecap:round; stroke-linejoin:round; stroke-width:8; stroke-opacity:1; fill:none" points="326.187,2913.26 322.568,2923.11 "/>
<polyline clip-path="url(#clip912)" style="stroke:#000000; stroke-linecap:round; stroke-linejoin:round; stroke-width:8; stroke-opacity:1; fill:none" points="1135.19,2478.94 1156.9,2485.47 "/>
<polyline clip-path="url(#clip912)" style="stroke:#000000; stroke-linecap:round; stroke-linejoin:round; stroke-width:8; stroke-opacity:1; fill:none" points="1536.85,921.207 1517.13,917.132 "/>
<polyline clip-path="url(#clip912)" style="stroke:#000000; stroke-linecap:round; stroke-linejoin:round; stroke-width:8; stroke-opacity:1; fill:none" points="3809.27,132.611 3830.8,135.937 "/>
<polyline clip-path="url(#clip912)" style="stroke:#000000; stroke-linecap:round; stroke-linejoin:round; stroke-width:8; stroke-opacity:1; fill:none" points="2429.89,1617.49 2424.65,1615.87 "/>
<polyline clip-path="url(#clip912)" style="stroke:#000000; stroke-linecap:round; stroke-linejoin:round; stroke-width:8; stroke-opacity:1; fill:none" points="3169.97,1125.21 3144.73,1123.54 "/>
<polyline clip-path="url(#clip912)" style="stroke:#000000; stroke-linecap:round; stroke-linejoin:round; stroke-width:8; stroke-opacity:1; fill:none" points="1175.39,1415.2 1152.38,1452.08 "/>
<polyline clip-path="url(#clip912)" style="stroke:#000000; stroke-linecap:round; stroke-linejoin:round; stroke-width:8; stroke-opacity:1; fill:none" points="1454.89,878.295 1446.66,875.883 "/>
<polyline clip-path="url(#clip912)" style="stroke:#000000; stroke-linecap:round; stroke-linejoin:round; stroke-width:8; stroke-opacity:1; fill:none" points="1473.16,891.892 1461.22,881.621 "/>
<polyline clip-path="url(#clip912)" style="stroke:#000000; stroke-linecap:round; stroke-linejoin:round; stroke-width:8; stroke-opacity:1; fill:none" points="3841.74,139.555 3843.82,141.218 "/>
<polyline clip-path="url(#clip912)" style="stroke:#000000; stroke-linecap:round; stroke-linejoin:round; stroke-width:8; stroke-opacity:1; fill:none" points="3830.8,135.937 3834.87,136.686 "/>
<polyline clip-path="url(#clip912)" style="stroke:#000000; stroke-linecap:round; stroke-linejoin:round; stroke-width:8; stroke-opacity:1; fill:none" points="2031.41,1731.84 2039.28,1737.08 "/>
<polyline clip-path="url(#clip912)" style="stroke:#000000; stroke-linecap:round; stroke-linejoin:round; stroke-width:8; stroke-opacity:1; fill:none" points="1266.73,1326.63 1274.41,1322.64 "/>
<polyline clip-path="url(#clip912)" style="stroke:#000000; stroke-linecap:round; stroke-linejoin:round; stroke-width:8; stroke-opacity:1; fill:none" points="3144.73,1123.54 3093.16,1117.06 "/>
<polyline clip-path="url(#clip912)" style="stroke:#000000; stroke-linecap:round; stroke-linejoin:round; stroke-width:8; stroke-opacity:1; fill:none" points="843.18,1967.49 845.713,1970.85 "/>
<polyline clip-path="url(#clip912)" style="stroke:#000000; stroke-linecap:round; stroke-linejoin:round; stroke-width:8; stroke-opacity:1; fill:none" points="845.713,1970.85 849.422,1974.01 "/>
<polyline clip-path="url(#clip912)" style="stroke:#000000; stroke-linecap:round; stroke-linejoin:round; stroke-width:8; stroke-opacity:1; fill:none" points="3057.88,1113.27 2790.02,1079.72 "/>
<polyline clip-path="url(#clip912)" style="stroke:#000000; stroke-linecap:round; stroke-linejoin:round; stroke-width:8; stroke-opacity:1; fill:none" points="3748.56,288.417 3743.5,290.954 "/>
<polyline clip-path="url(#clip912)" style="stroke:#000000; stroke-linecap:round; stroke-linejoin:round; stroke-width:8; stroke-opacity:1; fill:none" points="1564.26,956.884 1544.81,962.664 "/>
<polyline clip-path="url(#clip912)" style="stroke:#000000; stroke-linecap:round; stroke-linejoin:round; stroke-width:8; stroke-opacity:1; fill:none" points="3846.08,146.665 3845.72,148.162 "/>
<polyline clip-path="url(#clip912)" style="stroke:#000000; stroke-linecap:round; stroke-linejoin:round; stroke-width:8; stroke-opacity:1; fill:none" points="2449.89,1632.96 2429.89,1617.49 "/>
<polyline clip-path="url(#clip912)" style="stroke:#000000; stroke-linecap:round; stroke-linejoin:round; stroke-width:8; stroke-opacity:1; fill:none" points="1505.82,913.39 1498.4,910.729 "/>
<polyline clip-path="url(#clip912)" style="stroke:#000000; stroke-linecap:round; stroke-linejoin:round; stroke-width:8; stroke-opacity:1; fill:none" points="566.546,2397.23 458.73,2602.73 "/>
<polyline clip-path="url(#clip912)" style="stroke:#000000; stroke-linecap:round; stroke-linejoin:round; stroke-width:8; stroke-opacity:1; fill:none" points="1227.46,2268.04 1224.21,2270.66 "/>
<polyline clip-path="url(#clip912)" style="stroke:#000000; stroke-linecap:round; stroke-linejoin:round; stroke-width:8; stroke-opacity:1; fill:none" points="2740.54,1076.85 2729.87,1078.26 "/>
<polyline clip-path="url(#clip912)" style="stroke:#000000; stroke-linecap:round; stroke-linejoin:round; stroke-width:8; stroke-opacity:1; fill:none" points="469.117,2620.48 474.093,2622.06 "/>
<polyline clip-path="url(#clip912)" style="stroke:#000000; stroke-linecap:round; stroke-linejoin:round; stroke-width:8; stroke-opacity:1; fill:none" points="2402.93,1617.78 2034.39,1711.55 "/>
<polyline clip-path="url(#clip912)" style="stroke:#000000; stroke-linecap:round; stroke-linejoin:round; stroke-width:8; stroke-opacity:1; fill:none" points="1624.78,933.848 1608.4,943.245 "/>
<polyline clip-path="url(#clip912)" style="stroke:#000000; stroke-linecap:round; stroke-linejoin:round; stroke-width:8; stroke-opacity:1; fill:none" points="1498.4,910.729 1490.53,906.529 "/>
<polyline clip-path="url(#clip912)" style="stroke:#000000; stroke-linecap:round; stroke-linejoin:round; stroke-width:8; stroke-opacity:1; fill:none" points="3743.5,290.954 3708.58,304.011 "/>
<polyline clip-path="url(#clip912)" style="stroke:#000000; stroke-linecap:round; stroke-linejoin:round; stroke-width:8; stroke-opacity:1; fill:none" points="456.815,2608.26 457.267,2611 "/>
<polyline clip-path="url(#clip912)" style="stroke:#000000; stroke-linecap:round; stroke-linejoin:round; stroke-width:8; stroke-opacity:1; fill:none" points="841.823,1963.95 843.18,1967.49 "/>
<polyline clip-path="url(#clip912)" style="stroke:#000000; stroke-linecap:round; stroke-linejoin:round; stroke-width:8; stroke-opacity:1; fill:none" points="1175.39,1415.2 1249.72,1339.02 "/>
<polyline clip-path="url(#clip912)" style="stroke:#000000; stroke-linecap:round; stroke-linejoin:round; stroke-width:8; stroke-opacity:1; fill:none" points="3845.72,148.162 3756.07,282.222 "/>
<polyline clip-path="url(#clip912)" style="stroke:#000000; stroke-linecap:round; stroke-linejoin:round; stroke-width:8; stroke-opacity:1; fill:none" points="3093.16,1117.06 3057.88,1113.27 "/>
<polyline clip-path="url(#clip912)" style="stroke:#000000; stroke-linecap:round; stroke-linejoin:round; stroke-width:8; stroke-opacity:1; fill:none" points="1490.53,906.529 1481.12,899.834 "/>
<polyline clip-path="url(#clip912)" style="stroke:#000000; stroke-linecap:round; stroke-linejoin:round; stroke-width:8; stroke-opacity:1; fill:none" points="1299.65,2261.22 1758.03,2333.36 "/>
<polyline clip-path="url(#clip912)" style="stroke:#000000; stroke-linecap:round; stroke-linejoin:round; stroke-width:8; stroke-opacity:1; fill:none" points="3838.85,138.058 3841.74,139.555 "/>
<polyline clip-path="url(#clip912)" style="stroke:#000000; stroke-linecap:round; stroke-linejoin:round; stroke-width:8; stroke-opacity:1; fill:none" points="1152.38,1452.08 1079.47,1575.45 "/>
<polyline clip-path="url(#clip912)" style="stroke:#000000; stroke-linecap:round; stroke-linejoin:round; stroke-width:8; stroke-opacity:1; fill:none" points="3244.78,1072.4 3235.37,1087.24 "/>
<polyline clip-path="url(#clip912)" style="stroke:#000000; stroke-linecap:round; stroke-linejoin:round; stroke-width:8; stroke-opacity:1; fill:none" points="1446.66,875.883 958.972,806.234 "/>
<polyline clip-path="url(#clip912)" style="stroke:#000000; stroke-linecap:round; stroke-linejoin:round; stroke-width:8; stroke-opacity:1; fill:none" points="3638.74,414.701 3588.45,504.268 "/>
<polyline clip-path="url(#clip912)" style="stroke:#000000; stroke-linecap:round; stroke-linejoin:round; stroke-width:8; stroke-opacity:1; fill:none" points="3256,1047.7 3244.78,1072.4 "/>
<polyline clip-path="url(#clip912)" style="stroke:#000000; stroke-linecap:round; stroke-linejoin:round; stroke-width:8; stroke-opacity:1; fill:none" points="461.247,2616.24 464.775,2618.53 "/>
<polyline clip-path="url(#clip912)" style="stroke:#000000; stroke-linecap:round; stroke-linejoin:round; stroke-width:8; stroke-opacity:1; fill:none" points="1156.9,2485.47 1577.1,2541.27 "/>
<polyline clip-path="url(#clip912)" style="stroke:#000000; stroke-linecap:round; stroke-linejoin:round; stroke-width:8; stroke-opacity:1; fill:none" points="2790.02,1079.72 1624.78,933.848 "/>
<polyline clip-path="url(#clip912)" style="stroke:#000000; stroke-linecap:round; stroke-linejoin:round; stroke-width:8; stroke-opacity:1; fill:none" points="2449.89,1632.96 2481.73,1792.8 "/>
<polyline clip-path="url(#clip912)" style="stroke:#000000; stroke-linecap:round; stroke-linejoin:round; stroke-width:8; stroke-opacity:1; fill:none" points="3845.36,142.882 3846.17,145.418 "/>
<polyline clip-path="url(#clip912)" style="stroke:#000000; stroke-linecap:round; stroke-linejoin:round; stroke-width:8; stroke-opacity:1; fill:none" points="1356.56,1121.96 1237.14,1316.19 "/>
<polyline clip-path="url(#clip912)" style="stroke:#000000; stroke-linecap:round; stroke-linejoin:round; stroke-width:8; stroke-opacity:1; fill:none" points="842.909,1956.84 841.823,1960.37 "/>
<polyline clip-path="url(#clip912)" style="stroke:#000000; stroke-linecap:round; stroke-linejoin:round; stroke-width:8; stroke-opacity:1; fill:none" points="1232.26,2265.54 1227.46,2268.04 "/>
<polyline clip-path="url(#clip912)" style="stroke:#000000; stroke-linecap:round; stroke-linejoin:round; stroke-width:8; stroke-opacity:1; fill:none" points="2564.68,1378.73 2449.89,1632.96 "/>
<polyline clip-path="url(#clip912)" style="stroke:#000000; stroke-linecap:round; stroke-linejoin:round; stroke-width:8; stroke-opacity:1; fill:none" points="458.714,2613.75 461.247,2616.24 "/>
<polyline clip-path="url(#clip912)" style="stroke:#000000; stroke-linecap:round; stroke-linejoin:round; stroke-width:8; stroke-opacity:1; fill:none" points="1274.41,1322.64 1286.9,1316.9 "/>
<polyline clip-path="url(#clip912)" style="stroke:#000000; stroke-linecap:round; stroke-linejoin:round; stroke-width:8; stroke-opacity:1; fill:none" points="1517.13,917.132 1505.82,913.39 "/>
<polyline clip-path="url(#clip912)" style="stroke:#000000; stroke-linecap:round; stroke-linejoin:round; stroke-width:8; stroke-opacity:1; fill:none" points="1461.22,881.621 1454.89,878.295 "/>
<polyline clip-path="url(#clip912)" style="stroke:#000000; stroke-linecap:round; stroke-linejoin:round; stroke-width:8; stroke-opacity:1; fill:none" points="1079.47,1575.45 929.753,1807.89 "/>
<polyline clip-path="url(#clip912)" style="stroke:#000000; stroke-linecap:round; stroke-linejoin:round; stroke-width:8; stroke-opacity:1; fill:none" points="1455.7,998.591 1447.92,1004.79 "/>
<polyline clip-path="url(#clip912)" style="stroke:#000000; stroke-linecap:round; stroke-linejoin:round; stroke-width:8; stroke-opacity:1; fill:none" points="3500.52,649.596 3256,1047.7 "/>
<polyline clip-path="url(#clip912)" style="stroke:#000000; stroke-linecap:round; stroke-linejoin:round; stroke-width:8; stroke-opacity:1; fill:none" points="1393.74,1057.43 1356.56,1121.96 "/>
<polyline clip-path="url(#clip912)" style="stroke:#000000; stroke-linecap:round; stroke-linejoin:round; stroke-width:8; stroke-opacity:1; fill:none" points="1253.88,2263.17 1240.67,2263.96 "/>
<polyline clip-path="url(#clip912)" style="stroke:#000000; stroke-linecap:round; stroke-linejoin:round; stroke-width:8; stroke-opacity:1; fill:none" points="1106.97,2448.92 1105.52,2454.78 "/>
<polyline clip-path="url(#clip912)" style="stroke:#000000; stroke-linecap:round; stroke-linejoin:round; stroke-width:8; stroke-opacity:1; fill:none" points="3752.64,285.631 3748.56,288.417 "/>
<polyline clip-path="url(#clip912)" style="stroke:#000000; stroke-linecap:round; stroke-linejoin:round; stroke-width:8; stroke-opacity:1; fill:none" points="844.64,1953.56 834.315,1971.23 "/>
<polyline clip-path="url(#clip912)" style="stroke:#000000; stroke-linecap:round; stroke-linejoin:round; stroke-width:8; stroke-opacity:1; fill:none" points="2424.65,1615.87 2419.4,1615.87 "/>
<polyline clip-path="url(#clip912)" style="stroke:#000000; stroke-linecap:round; stroke-linejoin:round; stroke-width:8; stroke-opacity:1; fill:none" points="1120.72,2472.2 1135.19,2478.94 "/>
<polyline clip-path="url(#clip912)" style="stroke:#000000; stroke-linecap:round; stroke-linejoin:round; stroke-width:8; stroke-opacity:1; fill:none" points="2790.02,1079.72 2756.1,1077.14 "/>
<polyline clip-path="url(#clip912)" style="stroke:#000000; stroke-linecap:round; stroke-linejoin:round; stroke-width:8; stroke-opacity:1; fill:none" points="841.823,1960.37 841.823,1963.95 "/>
<polyline clip-path="url(#clip912)" style="stroke:#000000; stroke-linecap:round; stroke-linejoin:round; stroke-width:8; stroke-opacity:1; fill:none" points="458.73,2602.73 457.448,2605.47 "/>
<polyline clip-path="url(#clip912)" style="stroke:#000000; stroke-linecap:round; stroke-linejoin:round; stroke-width:8; stroke-opacity:1; fill:none" points="3215.2,1114.89 3207.51,1119.34 "/>
<polyline clip-path="url(#clip912)" style="stroke:#000000; stroke-linecap:round; stroke-linejoin:round; stroke-width:8; stroke-opacity:1; fill:none" points="414.116,2687.76 326.187,2913.26 "/>
<polyline clip-path="url(#clip912)" style="stroke:#000000; stroke-linecap:round; stroke-linejoin:round; stroke-width:8; stroke-opacity:1; fill:none" points="3222.8,1108.37 3219.9,1111.32 "/>
<polyline clip-path="url(#clip912)" style="stroke:#000000; stroke-linecap:round; stroke-linejoin:round; stroke-width:8; stroke-opacity:1; fill:none" points="1544.81,962.664 1503.74,975.762 "/>
<polyline clip-path="url(#clip912)" style="stroke:#000000; stroke-linecap:round; stroke-linejoin:round; stroke-width:8; stroke-opacity:1; fill:none" points="1481.12,899.834 1473.16,891.892 "/>
<polyline clip-path="url(#clip912)" style="stroke:#000000; stroke-linecap:round; stroke-linejoin:round; stroke-width:8; stroke-opacity:1; fill:none" points="3588.45,504.268 3524.13,604.272 "/>
<polyline clip-path="url(#clip912)" style="stroke:#000000; stroke-linecap:round; stroke-linejoin:round; stroke-width:8; stroke-opacity:1; fill:none" points="1106.97,2461.1 1111.94,2466.09 "/>
<polyline clip-path="url(#clip912)" style="stroke:#000000; stroke-linecap:round; stroke-linejoin:round; stroke-width:8; stroke-opacity:1; fill:none" points="929.753,1807.89 844.64,1953.56 "/>
<polyline clip-path="url(#clip912)" style="stroke:#000000; stroke-linecap:round; stroke-linejoin:round; stroke-width:8; stroke-opacity:1; fill:none" points="457.267,2611 458.714,2613.75 "/>
<polyline clip-path="url(#clip912)" style="stroke:#000000; stroke-linecap:round; stroke-linejoin:round; stroke-width:8; stroke-opacity:1; fill:none" points="1416.26,1032.9 1393.74,1057.43 "/>
<path clip-path="url(#clip912)" d="M1778.03 2313.36 L1738.03 2313.36 L1758.03 2353.36 L1778.03 2313.36 Z" fill="#0000ff" fill-rule="evenodd" fill-opacity="1" stroke="#000000" stroke-opacity="1" stroke-width="6.4"/>
<path clip-path="url(#clip912)" d="M2049.42 1939.13 L2009.42 1939.13 L2029.42 1979.13 L2049.42 1939.13 Z" fill="#ff0000" fill-rule="evenodd" fill-opacity="1" stroke="#000000" stroke-opacity="1" stroke-width="6.4"/>
<path clip-path="url(#clip912)" d="M2501.73 1772.8 L2461.73 1772.8 L2481.73 1812.8 L2501.73 1772.8 Z" fill="#ff0000" fill-rule="evenodd" fill-opacity="1" stroke="#000000" stroke-opacity="1" stroke-width="6.4"/>
<path clip-path="url(#clip912)" d="M1597.1 2521.27 L1557.1 2521.27 L1577.1 2561.27 L1597.1 2521.27 Z" fill="#0000ff" fill-rule="evenodd" fill-opacity="1" stroke="#000000" stroke-opacity="1" stroke-width="6.4"/>
</svg>
